/* XPM */
static char *document_new_xpm[] = {
/* columns rows colors chars-per-pixel */
"22 22 138 2",
"   c #94947F",
".  c #9D9B7B",
"X  c #B6B06F",
"o  c #B9B26E",
"O  c #B2AC70",
"+  c #FBE951",
"@  c #FAEA5C",
"#  c #FAEA5F",
"$  c #CAC169",
"%  c #E4D86F",
"&  c #F4E87E",
"*  c #868883",
"=  c #8A8B83",
"-  c #888A84",
";  c #888A85",
":  c #ADAFAC",
">  c #AEAFAD",
",  c #ECE485",
"<  c #F3E785",
"1  c #F6E980",
"2  c #F5E982",
"3  c #F6EC8E",
"4  c #F7EE8E",
"5  c #FAEE8D",
"6  c #FCEF8E",
"7  c #F2E893",
"8  c #F6EE98",
"9  c #F5EDA2",
"0  c #F0E8A4",
"q  c #EBE6BD",
"w  c #F2ECB4",
"e  c #F5EFB7",
"r  c #F2ECBB",
"t  c gray87",
"y  c #DFDFDF",
"u  c #E9E5C9",
"i  c #E9E7CA",
"p  c #EAE8CC",
"a  c #EDE9CE",
"s  c #EBE9DF",
"d  c #FEF9D0",
"f  c #FEF9D3",
"g  c #F6F3DE",
"h  c gray88",
"j  c #E1E1E1",
"k  c #E2E1E1",
"l  c #E1E2E1",
"z  c #E2E2E2",
"x  c #E3E3E2",
"c  c #E3E2E3",
"v  c gray89",
"b  c #E4E4E0",
"n  c #E4E4E3",
"m  c #E5E5E3",
"M  c #E7E7E2",
"N  c #E3E3E4",
"B  c #E4E3E4",
"V  c #E4E4E4",
"C  c #E5E5E4",
"Z  c #E4E4E5",
"A  c gray90",
"S  c #E5E6E5",
"D  c #E6E6E5",
"F  c #E5E6E6",
"G  c #E6E6E6",
"H  c #E7E6E6",
"J  c #E7E7E6",
"K  c #E6E6E7",
"L  c #E7E6E7",
"P  c #E7E7E7",
"I  c #E8E8E7",
"U  c #E9E9E7",
"Y  c #E7E7E8",
"T  c #E8E7E8",
"R  c #E7E8E8",
"E  c gray91",
"W  c #E9E8E8",
"Q  c #E9E9E8",
"!  c #E8E8E9",
"~  c #E9E8E9",
"^  c #E8E9E9",
"/  c #E9E9E9",
"(  c #E9E9EA",
")  c #EAE9EA",
"_  c #EAEAEA",
"`  c #EBEAEA",
"'  c #EAEBEA",
"]  c #EBEAEB",
"[  c #EAEBEB",
"{  c gray92",
"}  c #ECEBEB",
"|  c #EBECEB",
" . c #ECECEB",
".. c #ECECEC",
"X. c #ECECED",
"o. c #EDECED",
"O. c #ECEDED",
"+. c gray93",
"@. c #EDEEED",
"#. c #EEEEED",
"$. c #EDEDEE",
"%. c #EDEEEE",
"&. c #EEEEEE",
"*. c #EFEEEE",
"=. c #EEEFEE",
"-. c #EEEEEF",
";. c #EFEEEF",
":. c #EFEFEF",
">. c #F5F2E1",
",. c #F0F0EF",
"<. c #EFF0F0",
"1. c gray94",
"2. c #F0F1F0",
"3. c #F1F0F1",
"4. c #F0F1F1",
"5. c #F1F1F1",
"6. c #F2F2F1",
"7. c #F1F1F2",
"8. c #F2F1F2",
"9. c gray95",
"0. c #F2F3F2",
"q. c #F3F3F2",
"w. c #F3F2F3",
"e. c #F2F3F3",
"r. c #F3F4F3",
"t. c #F4F4F3",
"y. c #F5F4F3",
"u. c #F6F5F3",
"i. c #F4F3F4",
"p. c #F3F4F4",
"a. c #F4F4F4",
"s. c #F5F5F4",
"d. c #F5F4F5",
"f. c #F6F5F5",
"g. c #F5F6F6",
"h. c #FEFEFA",
"j. c gray100",
"k. c None",
/* pixels */
"k.k.k.k.k.k.k.k.k.k.k.k.k.k.k.k.k.k.k.k.k.k.",
"k.k.; ; - * ; ; ; ; ; ; ; ; ; = . X o O k.k.",
"k.k.; j.j.j.j.j.j.j.j.j.j.j.h.d 6 4 8 % k.k.",
"k.k.; j.y z y z z z z A A n u < 5 >.u.w # k.",
"k.k.; j.y z z z z z z z z n q & 9 u.f.r @ k.",
"k.k.; j.z z z z z z B A A n i 7 1 e g , + k.",
"k.k.; j.z z A z z z A A A A M i 0 2 5 $ k.k.",
"k.k.; j.z A A z B n A A R E U U M a d   k.k.",
"k.k.; j.> A J A A A A E E E [ [  .X.j.; k.k.",
"k.k.; j.A j.J A A A E E E E E X.X.X.j.; k.k.",
"k.k.; j.A A E E E E E E | E X.X.X.X.j.- k.k.",
"k.k.; j.A E E E E E E  .X. . .X.X.X.j.- k.k.",
"k.k.; j.A E E E E E  . .X.X.X.,.X.6.j.- k.k.",
"k.k.; j.> E X.E } }  .X.X.X.X.,.:.<.j.- k.k.",
"k.k.; j.E j.E } X.} X.X.:.X.,.6.6.i.j.; k.k.",
"k.k.; j.E E X.} X.X.:.X.:.,.6.6.6.6.j.; k.k.",
"k.k.; j.E X. .X.X.X.:.:.<.6.6.6.i.p.j.- k.k.",
"k.k.; j.E E X.X.:.:.6.<.6.6.6.r.i.p.j.- k.k.",
"k.k.; j.E E | X.X.6.3.6.6.6.i.i.d.d.j.- k.k.",
"k.k.; j.j.j.j.j.j.j.j.j.j.j.j.j.j.j.j.- k.k.",
"k.k.- ; ; ; ; ; ; ; ; ; ; ; ; ; ; ; ; k.k.k.",
"k.k.k.k.k.k.k.k.k.k.k.k.k.k.k.k.k.k.k.k.k.k."
};
