/* XPM */
static char * nmr_xpm[] = {
"22 22 57 1",
" 	c None",
".	c #000000",
"+	c #000B2F",
"@	c #0036E9",
"#	c #003CFF",
"$	c #3130CD",
"%	c #003BFC",
"&	c #FF0000",
"*	c #9C1762",
"=	c #0E2DC0",
"-	c #5727A7",
";	c #EA0414",
">	c #E60518",
",	c #A20824",
"'	c #672398",
")	c #D00A2E",
"!	c #B3114B",
"~	c #6D2291",
"{	c #B5020B",
"]	c #60259E",
"^	c #E1061D",
"/	c #201D7C",
"(	c #472AB6",
"_	c #B41149",
":	c #3230CC",
"<	c #2034DE",
"[	c #70218D",
"}	c #CA0C34",
"|	c #CB0B32",
"1	c #E70517",
"2	c #E2061C",
"3	c #9A1764",
"4	c #013BFD",
"5	c #0939F5",
"6	c #65249A",
"7	c #D00A2D",
"8	c #0B2DC2",
"9	c #781F85",
"0	c #E40519",
"a	c #000C34",
"b	c #0C0413",
"c	c #3D0B31",
"d	c #242DC1",
"e	c #7A0002",
"f	c #180000",
"g	c #000516",
"h	c #3B2EC3",
"i	c #19030C",
"j	c #0B061C",
"k	c #242CBE",
"l	c #3D0001",
"m	c #280000",
"n	c #000519",
"o	c #081047",
"p	c #5B1351",
"q	c #40020A",
"r	c #100000",
"                      ",
"          .           ",
"         ...          ",
"        .....         ",
"       .  +  .        ",
"          @#          ",
"        $#%#          ",
"      &&*#=-          ",
"      ;&>#,&& #       ",
"     #')!~{&&###      ",
"     ##]&^/(_:##      ",
"      <[}|@]123       ",
"      4567890&        ",
"  .   a5bcd)ef ...    ",
"  ..  ghijk)lm .  .   ",
"  .   . .nopqr .  .   ",
"  . . . . .. . ...    ",
"  .   . . .. . .  .   ",
"  .  .. .    . .  .   ",
"  .   . .    . .      ",
"                      ",
"                      "};
