/* XPM */
static char * bonds_xpm[] = {
"21 21 63 1",
" 	c None",
".	c #E5BC00",
"+	c #704100",
"@	c #84725C",
"#	c #916100",
"$	c #582000",
"%	c #000000",
"&	c #9D9D9D",
"*	c #9F9F9F",
"=	c #5B4747",
"-	c #310000",
";	c #776A6A",
">	c #CE0000",
",	c #AC0000",
"'	c #4D0000",
")	c #A5A5A5",
"!	c #959595",
"~	c #848484",
"{	c #020202",
"]	c #7D0000",
"^	c #C70000",
"/	c #A30000",
"(	c #5B0000",
"_	c #675656",
":	c #680000",
"<	c #B90000",
"[	c #610000",
"}	c #770000",
"|	c #650000",
"1	c #3B0000",
"2	c #A90000",
"3	c #B00000",
"4	c #340000",
"5	c #421414",
"6	c #847979",
"7	c #4F0000",
"8	c #580000",
"9	c #3A0000",
"0	c #A6A6A6",
"a	c #2E0000",
"b	c #B3B3B3",
"c	c #878787",
"d	c #090909",
"e	c #8B6600",
"f	c #643C00",
"g	c #E1B900",
"h	c #D9AF00",
"i	c #986700",
"j	c #4D1C00",
"k	c #7A5000",
"l	c #BC8F00",
"m	c #B78900",
"n	c #875400",
"o	c #4D1400",
"p	c #542500",
"q	c #7E4A00",
"r	c #7C4800",
"s	c #5C2500",
"t	c #3D0400",
"u	c #3C0100",
"v	c #330000",
"w	c #2F0000",
"x	c #2C0000",
"                     ",
"             .+      ",
"            @#$   %  ",
"          &*=-;      ",
"   >,' )!      ~{    ",
"  ]^/(_         :<[  ",
"  '}|1          23:  ",
"   456       %  789  ",
"     0           a   ",
"      b    %         ",
"       b  %          ",
"        c            ",
"        d            ",
"           ef        ",
"          ghij       ",
"     %   klmno       ",
"         pqrs1       ",
"   %      tu1v       ",
"           wx        ",
"                     ",
"%                    "};
