/* XPM */
static char *document_save_xpm[] = {
/* columns rows colors chars-per-pixel */
"22 22 125 2",
"   c #5B7A72",
".  c #54727B",
"X  c #57787D",
"o  c #5E7C79",
"O  c #666864",
"+  c #676964",
"@  c #6E706B",
"#  c #607D6E",
"$  c #72756B",
"%  c #75796C",
"&  c #777975",
"*  c #7C816D",
"=  c #6C8577",
"-  c #7F817E",
";  c #3F6C86",
":  c #38678B",
">  c #3F6A89",
",  c #3B6C91",
"<  c #3C6D91",
"1  c #3F7296",
"2  c #496E82",
"3  c #426E88",
"4  c #416C8A",
"5  c #4D7282",
"6  c #547780",
"7  c #51798A",
"8  c #53798A",
"9  c #5B7E88",
"0  c #427092",
"q  c #4D7991",
"w  c #44789C",
"e  c #477DA2",
"r  c #477DA3",
"t  c #6D8D8E",
"y  c #708A82",
"u  c #688993",
"i  c #4A80A6",
"p  c #4A80A8",
"a  c #4E87B0",
"s  c #5088B1",
"d  c #5089B2",
"f  c #518BB5",
"g  c #538CB5",
"h  c #5892BD",
"j  c #6296BB",
"k  c #5B96C1",
"l  c #5C97C3",
"z  c #5E99C6",
"x  c #5E9AC7",
"c  c #609CCA",
"v  c #609DCB",
"b  c #629FCE",
"n  c #63A0CE",
"m  c #67A2CE",
"M  c #63A1D0",
"N  c #67A3D2",
"B  c #6BA5D3",
"V  c #74A8D3",
"C  c #74A8D4",
"Z  c #75A9D5",
"A  c #838580",
"S  c #8E8F8D",
"D  c gray57",
"F  c #949691",
"G  c gray58",
"H  c #979797",
"J  c #989898",
"K  c #9B9D99",
"L  c #A3A4A2",
"P  c #A5A5A5",
"I  c #A9A9A9",
"U  c #ACACAC",
"Y  c gray69",
"T  c #B1B1B0",
"R  c #B2B2B2",
"E  c gray72",
"W  c gray73",
"Q  c #BBBBBB",
"!  c #BCBCBC",
"~  c #81ADD1",
"^  c #8FB6DB",
"/  c #C0C0C0",
"(  c #C1C1C1",
")  c gray77",
"_  c #C5C5C4",
"`  c #C5C5C5",
"'  c gray78",
"]  c #C6CCC0",
"[  c #C9CEC3",
"{  c #C8C8C8",
"}  c gray79",
"|  c #CBCBCB",
" . c #CCCCCB",
".. c gray80",
"X. c #CDCDCD",
"o. c #CFCFCD",
"O. c #CECECE",
"+. c #CAD0C4",
"@. c #CCD1C5",
"#. c #D2D6CC",
"$. c #D3D8CC",
"%. c #D0D0D0",
"&. c gray82",
"*. c gray84",
"=. c #D7D7D7",
"-. c #D8DAD8",
";. c gray86",
":. c gray88",
">. c #E1E1E1",
",. c #E1E2E1",
"<. c #E2E2E1",
"1. c #E2E3E1",
"2. c gray89",
"3. c gray90",
"4. c #E6E6E6",
"5. c #E7E7E7",
"6. c #E9E9E8",
"7. c #EAEBEA",
"8. c gray92",
"9. c #ECECEC",
"0. c gray93",
"q. c #F1F1F1",
"w. c #F3F3F3",
"e. c #F6F6F6",
"r. c None",
/* pixels */
"r.r.r.= q : : : : 3 6 r.r.r.r.r.r.r.r.r.r.r.",
"r.r.r.0 j ~ V ^ Z b 8 2 r.r.r.r.r.r.r.r.r.r.",
"r.r.7 m w 1 , r b Z B r 4 r.r.r.r.r.r.r.r.r.",
"r.o t 9 r.r.r.3 r x x k r 3 r.r.r.r.r.r.r.r.",
"r.5 y r.r.r.r.r., g h k b X # r.r.r.r.r.r.r.",
"r.  * @ @ @ @ % : h h h h u . @ @ @ @ r.r.r.",
"r.r.$ e.e.e.e.e.: h h h h c : e.e.e.e.@ r.r.",
"r.r.A 9.e.8.8.8.: h d h h M : 8.8.-.8.A r.r.",
"r.r.K 9.8.e.: : : h d h h b : , : >.7.F r.r.",
"r.@  .2.8.8.: c c N d f h k l x : 8.9. .$ r.",
"r.@ 3.2.8.8.#., c a d a d a l , @.8.9.9.@ r.",
"r.& 9.e.8.8.8.@.: c a a d l : +.8.8.e.9.- r.",
"r.S 9.3.e.e.9.9.[ : c d l : +.8.e.e.3.9.S r.",
"@ E 3.8.5.3.e.e.e.$.: c , $.e.e.3.3.>.>.R @ ",
"O #.w.3.3.3.3.3.3.3.] : [ 3.3.3.3.>.>.q.O.O ",
"@ e.e.e.e.e.e.e.e.e.e.e.e.e.e.e.e.e.e.e.e.@ ",
"@ >.O.O.O.O.O.O.O.O.O.| O.| O.O.| | | O.>.@ ",
"@ >.{ ;.D J P Y R ! Q ' &./ *./ *./ *./ >.@ ",
"@ >.{ =.G J P I U E ( ) &./ *./ *./ *./ >.@ ",
"@ >.{ O.) / ) / / / ' { &./ *./ *./ *./ >.@ ",
"@ | >.>.>.>.>.>.>.>.>.>.>.>.>.>.>.>.>.>.{ @ ",
"r.@ @ @ @ @ @ @ @ @ @ @ @ @ @ @ @ @ @ @ @ r."
};
