/* XPM */
static char * nmr_epr_xpm[] = {
"22 22 2 1",
" 	c None",
".	c #000000",
"                      ",
"                      ",
"                      ",
"  .   . ..  .. ...    ",
"  ..  . ..  .. .  .   ",
"  .   . ..  .. .  .   ",
"  . . . . .. . ...    ",
"  .   . . .. . .  .   ",
"  .  .. .    . .  .   ",
"  .   . .    . .      ",
"                      ",
"                      ",
"                      ",
"    .... ...  ...     ",
"    .    .  . .  .    ",
"    .    .  . .  .    ",
"    .... .  . ...     ",
"    .    ...  .  .    ",
"    .    .    .  .    ",
"    .... .    .       ",
"                      ",
"                      "};
