/* XPM */
static char * noimage_xpm[] = {
"15 15 17 1",
" 	c None",
".	c #B1B1B1",
"+	c #FCFCFC",
"@	c #FFFFFF",
"#	c #FEFEFE",
"$	c #FAFAFA",
"%	c #B6B6B6",
"&	c #F7F7F7",
"*	c #BBBBBB",
"=	c #F4F4F4",
"-	c #C1C1C1",
";	c #F0F0F0",
">	c #C5C5C5",
",	c #EEEEEE",
"'	c #CCCCCC",
")	c #DDDDDD",
"!	c #999999",
".+@@#@@@@@#@@+.",
"+.$@@#@@@#@@$.+",
"@$%&@@#@#@@&%$@",
"@@&*=@###@=*&@@",
"#@@=-;@#@;-=@@#",
"@#@@;>,@,>;@@#@",
"@@##@,')',@##@@",
"@@@##@)!)@##@@@",
"@@##@,')',@##@@",
"@#@@;>,@,>;@@#@",
"#@@=-;@#@;-=@@#",
"@@&*=@###@=*&@@",
"@$%&@@#@#@@&%$@",
"+.$@@#@@@#@@$.+",
".+@@#@@@@@#@@+."};
