/* XPM */
static char * right_squiggle_xpm[] = {
"12 65 85 1",
" 	c #FFFFFF",
".	c #F8F8F8",
"+	c #151515",
"@	c #898989",
"#	c #FCFCFC",
"$	c #C7C7C7",
"%	c #131313",
"&	c #4B4B4B",
"*	c #F4F4F4",
"=	c #C9C9C9",
"-	c #060606",
";	c #7E7E7E",
">	c #000000",
",	c #8E8E8E",
"'	c #EFEFEF",
")	c #080808",
"!	c #121212",
"~	c #F3F3F3",
"{	c #505050",
"]	c #A5A5A5",
"^	c #878787",
"/	c #666666",
"(	c #9F9F9F",
"_	c #494949",
":	c #A7A7A7",
"<	c #434343",
"[	c #B8B8B8",
"}	c #313131",
"|	c #676767",
"1	c #A8A8A8",
"2	c #444444",
"3	c #424242",
"4	c #B6B6B6",
"5	c #363636",
"6	c #E1E1E1",
"7	c #141414",
"8	c #FEFEFE",
"9	c #2B2B2B",
"0	c #D8D8D8",
"a	c #979797",
"b	c #FAFAFA",
"c	c #2D2D2D",
"d	c #EEEEEE",
"e	c #D9D9D9",
"f	c #5D5D5D",
"g	c #D2D2D2",
"h	c #1D1D1D",
"i	c #787878",
"j	c #ECECEC",
"k	c #1E1E1E",
"l	c #A0A0A0",
"m	c #EBEBEB",
"n	c #3F3F3F",
"o	c #464646",
"p	c #EDEDED",
"q	c #393939",
"r	c #4C4C4C",
"s	c #DFDFDF",
"t	c #B0B0B0",
"u	c #6C6C6C",
"v	c #3D3D3D",
"w	c #CBCBCB",
"x	c #0E0E0E",
"y	c #FDFDFD",
"z	c #BCBCBC",
"A	c #333333",
"B	c #A9A9A9",
"C	c #414141",
"D	c #3B3B3B",
"E	c #A6A6A6",
"F	c #9B9B9B",
"G	c #515151",
"H	c #767676",
"I	c #7A7A7A",
"J	c #343434",
"K	c #C5C5C5",
"L	c #CFCFCF",
"M	c #030303",
"N	c #CCCCCC",
"O	c #777777",
"P	c #656565",
"Q	c #0C0C0C",
"R	c #ABABAB",
"S	c #757575",
"T	c #E2E2E2",
"            ",
".+@#        ",
" $%&*       ",
"  =-&#      ",
"   ;>,      ",
"   ')!~     ",
"    {>]     ",
"    ^>/     ",
"    (>_     ",
"    :><     ",
"    :><     ",
"    :><     ",
"    :><     ",
"    :><     ",
"    :><     ",
"    :><     ",
"    [}|     ",
"    1>2     ",
"    :><     ",
"    :><     ",
"    :><     ",
"    :><     ",
"    :><     ",
"    :><     ",
"    :>3     ",
"    4>5     ",
"    6>78    ",
"     9>0    ",
"     a>;    ",
"     bc%d   ",
"      e!f8  ",
"       ghi8 ",
"        jkl ",
"       mno~ ",
"      p9q.  ",
"     8r)s   ",
"     t>u    ",
"     v>w    ",
"    m>xy    ",
"    z>A     ",
"    B>C     ",
"    :><     ",
"    :><     ",
"    :><     ",
"    :><     ",
"    :><     ",
"    :><     ",
"    (>D     ",
"    a>A     ",
"    :><     ",
"    :><     ",
"    :><     ",
"    :><     ",
"    :><     ",
"    :><     ",
"    E><     ",
"    F>G     ",
"    H>I     ",
"    J>K     ",
"   L>58     ",
"  yCMN      ",
" 8O>(       ",
"8PQR        ",
"bST         ",
"            "};
