/* XPM */
static char *cluster[] = {
/* columns rows colors chars-per-pixel */
"15 15 80 1",
"  c black",
". c #010101",
"X c #020202",
"o c gray1",
"O c #040404",
"+ c gray2",
"@ c #070707",
"# c #090909",
"$ c #0C0C0C",
"% c #272727",
"& c #323232",
"* c gray22",
"= c #393939",
"- c gray25",
"; c gray26",
": c #444444",
"> c gray31",
", c #505050",
"< c gray32",
"1 c #555555",
"2 c #585858",
"3 c #5B5B5B",
"4 c gray38",
"5 c gray40",
"6 c #6C6C6C",
"7 c gray44",
"8 c gray48",
"9 c #838383",
"0 c #848484",
"q c gray53",
"w c #8B8B8B",
"e c gray55",
"r c #8D8D8D",
"t c #909090",
"y c #929292",
"u c gray58",
"i c gray59",
"p c #979797",
"a c #989898",
"s c gray60",
"d c #9A9A9A",
"f c #9B9B9B",
"g c gray61",
"h c #9F9F9F",
"j c gray64",
"k c #A5A5A5",
"l c gray65",
"z c #B2B2B2",
"x c #B4B4B4",
"c c gray73",
"v c #C0C0C0",
"b c gray76",
"n c gray77",
"m c #C6C6C6",
"M c #C8C8C8",
"N c #CBCBCB",
"B c gray80",
"V c #CECECE",
"C c #DDDDDD",
"Z c gray88",
"A c #E1E1E1",
"S c #E2E2E2",
"D c #E4E4E4",
"F c gray90",
"G c #E7E7E7",
"H c gray93",
"J c #EEEEEE",
"K c gray94",
"L c #F1F1F1",
"P c gray95",
"I c #F6F6F6",
"U c gray97",
"Y c #F8F8F8",
"T c #F9F9F9",
"R c gray98",
"E c #FBFBFB",
"W c gray99",
"Q c #FDFDFD",
"! c #FEFEFE",
"~ c gray100",
/* pixels */
"~~!!~!~~!!Q!~~~",
"~~~!!~Q!~!~GMH~",
"!~C63m~!YAc4%c~",
"~~5  *kt9wjr;N~",
"~U- o+sZP~~YuK~",
"!~i$ :xQ~R~S0~!",
"~~Tn7DVeF~~cp~W",
"~~~~gD~Cubl=k~Q",
"~~!~qN~~L2  &Z~",
"~~~K8v~E!1 X#n~",
"!~B-$,D~~y@ >J~",
"!~8 O d~!IzhF~!",
"!~a. #z~Q~~~~~~",
"!~Le<fR~~~QQ!~~",
"~~~~Q~~~~~~~~~~"
};
