/* XPM */
static char *Jcoupling_xpm[] = {
/* columns rows colors chars-per-pixel */
"15 15 29 1",
"  c black",
". c #020202",
"X c #040404",
"o c #444444",
"O c #484848",
"+ c #515151",
"@ c gray38",
"# c gray50",
"$ c gray66",
"% c #A9A9A9",
"& c #AAAAAA",
"* c #ACACAC",
"= c gray71",
"- c #CDCDCD",
"; c #D0D0D0",
": c gray84",
"> c #D8D8D8",
", c gray85",
"< c #DADADA",
"1 c #E7E7E7",
"2 c gray91",
"3 c #EFEFEF",
"4 c gray95",
"5 c #F9F9F9",
"6 c #FBFBFB",
"7 c gray99",
"8 c #FDFDFD",
"9 c #FEFEFE",
"0 c gray100",
/* pixels */
"000000000000000",
"0000080-@209000",
"0000060% >08000",
"0000070* ,08000",
"0000070& >08000",
"0000070& >08000",
"0000070& >08000",
"0000070& >08000",
"0000070& >08000",
"0000850$ ,08000",
"0000060#.309000",
"0090;:=X+080000",
"0080O  o2090000",
"00004<109000000",
"000000088000000"
};
