/* XPM */
static char * noimage_xpm[] = {
"64 64 5 1",
" 	c None",
".	c #181818",
"+	c #C3C3C3",
"@	c #FFFFFF",
"#	c #121212",
".+@@@@@@@@@@@@@@@@@@@@@@@@@@@@@@@@@@@@@@@@@@@@@@@@@@@@@@@@@@@@+.",
"+.+@@@@@@@@@@@@@@@@@@@@@@@@@@@@@@@@@@@@@@@@@@@@@@@@@@@@@@@@@@+.+",
"@+.+@@@@@@@@@@@@@@@@@@@@@@@@@@@@@@@@@@@@@@@@@@@@@@@@@@@@@@@@+.+@",
"@@+.+@@@@@@@@@@@@@@@@@@@@@@@@@@@@@@@@@@@@@@@@@@@@@@@@@@@@@@+.+@@",
"@@@+.+@@@@@@@@@@@@@@@@@@@@@@@@@@@@@@@@@@@@@@@@@@@@@@@@@@@@+.+@@@",
"@@@@+.+@@@@@@@@@@@@@@@@@@@@@@@@@@@@@@@@@@@@@@@@@@@@@@@@@@+.+@@@@",
"@@@@@+.+@@@@@@@@@@@@@@@@@@@@@@@@@@@@@@@@@@@@@@@@@@@@@@@@+.+@@@@@",
"@@@@@@+.+@@@@@@@@@@@@@@@@@@@@@@@@@@@@@@@@@@@@@@@@@@@@@@+.+@@@@@@",
"@@@@@@@+.+@@@@@@@@@@@@@@@@@@@@@@@@@@@@@@@@@@@@@@@@@@@@+.+@@@@@@@",
"@@@@@@@@+.+@@@@@@@@@@@@@@@@@@@@@@@@@@@@@@@@@@@@@@@@@@+.+@@@@@@@@",
"@@@@@@@@@+.+@@@@@@@@@@@@@@@@@@@@@@@@@@@@@@@@@@@@@@@@+.+@@@@@@@@@",
"@@@@@@@@@@+.+@@@@@@@@@@@@@@@@@@@@@@@@@@@@@@@@@@@@@@+.+@@@@@@@@@@",
"@@@@@@@@@@@+.+@@@@@@@@@@@@@@@@@@@@@@@@@@@@@@@@@@@@+.+@@@@@@@@@@@",
"@@@@@@@@@@@@+.+@@@@@@@@@@@@@@@@@@@@@@@@@@@@@@@@@@+.+@@@@@@@@@@@@",
"@@@@@@@@@@@@@+.+@@@@@@@@@@@@@@@@@@@@@@@@@@@@@@@@+.+@@@@@@@@@@@@@",
"@@@@@@@@@@@@@@+.+@@@@@@@@@@@@@@@@@@@@@@@@@@@@@@+.+@@@@@@@@@@@@@@",
"@@@@@@@@@@@@@@@+.+@@@@@@@@@@@@@@@@@@@@@@@@@@@@+.+@@@@@@@@@@@@@@@",
"@@@@@@@@@@@@@@@@+.+@@@@@@@@@@@@@@@@@@@@@@@@@@+.+@@@@@@@@@@@@@@@@",
"@@@@@@@@@@@@@@@@@+.+@@@@@@@@@@@@@@@@@@@@@@@@+.+@@@@@@@@@@@@@@@@@",
"@@@@@@@@@@@@@@@@@@+.+@@@@@@@@@@@@@@@@@@@@@@+.+@@@@@@@@@@@@@@@@@@",
"@@@@@@@@@@@@@@@@@@@+.+@@@@@@@@@@@@@@@@@@@@+.+@@@@@@@@@@@@@@@@@@@",
"@@@@@@@@@@@@@@@@@@@@+.+@@@@@@@@@@@@@@@@@@+.+@@@@@@@@@@@@@@@@@@@@",
"@@@@@@@@@@@@@@@@@@@@@+.+@@@@@@@@@@@@@@@@+.+@@@@@@@@@@@@@@@@@@@@@",
"@@@@@@@@@@@@@@@@@@@@@@+.+@@@@@@@@@@@@@@+.+@@@@@@@@@@@@@@@@@@@@@@",
"@@@@@@@@@@@@@@@@@@@@@@@+.+@@@@@@@@@@@@+.+@@@@@@@@@@@@@@@@@@@@@@@",
"@@@@@@@@@@@@@@@@@@@@@@@@+.+@@@@@@@@@@+.+@@@@@@@@@@@@@@@@@@@@@@@@",
"@@@@@@@@@@@@@@@@@@@@@@@@@+.+@@@@@@@@+.+@@@@@@@@@@@@@@@@@@@@@@@@@",
"@@@@@@@@@@@@@@@@@@@@@@@@@@+.+@@@@@@+.+@@@@@@@@@@@@@@@@@@@@@@@@@@",
"@@@@@@@@@@@@@@@@@@@@@@@@@@@+.+@@@@+.+@@@@@@@@@@@@@@@@@@@@@@@@@@@",
"@@@@@@@@@@@@@@@@@@@@@@@@@@@@+.+@@+.+@@@@@@@@@@@@@@@@@@@@@@@@@@@@",
"@@@@@@@@@@@@@@@@@@@@@@@@@@@@@+.++.+@@@@@@@@@@@@@@@@@@@@@@@@@@@@@",
"@@@@@@@@@@@@@@@@@@@@@@@@@@@@@@+##+@@@@@@@@@@@@@@@@@@@@@@@@@@@@@@",
"@@@@@@@@@@@@@@@@@@@@@@@@@@@@@@+##+@@@@@@@@@@@@@@@@@@@@@@@@@@@@@@",
"@@@@@@@@@@@@@@@@@@@@@@@@@@@@@+.++.+@@@@@@@@@@@@@@@@@@@@@@@@@@@@@",
"@@@@@@@@@@@@@@@@@@@@@@@@@@@@+.+@@+.+@@@@@@@@@@@@@@@@@@@@@@@@@@@@",
"@@@@@@@@@@@@@@@@@@@@@@@@@@@+.+@@@@+.+@@@@@@@@@@@@@@@@@@@@@@@@@@@",
"@@@@@@@@@@@@@@@@@@@@@@@@@@+.+@@@@@@+.+@@@@@@@@@@@@@@@@@@@@@@@@@@",
"@@@@@@@@@@@@@@@@@@@@@@@@@+.+@@@@@@@@+.+@@@@@@@@@@@@@@@@@@@@@@@@@",
"@@@@@@@@@@@@@@@@@@@@@@@@+.+@@@@@@@@@@+.+@@@@@@@@@@@@@@@@@@@@@@@@",
"@@@@@@@@@@@@@@@@@@@@@@@+.+@@@@@@@@@@@@+.+@@@@@@@@@@@@@@@@@@@@@@@",
"@@@@@@@@@@@@@@@@@@@@@@+.+@@@@@@@@@@@@@@+.+@@@@@@@@@@@@@@@@@@@@@@",
"@@@@@@@@@@@@@@@@@@@@@+.+@@@@@@@@@@@@@@@@+.+@@@@@@@@@@@@@@@@@@@@@",
"@@@@@@@@@@@@@@@@@@@@+.+@@@@@@@@@@@@@@@@@@+.+@@@@@@@@@@@@@@@@@@@@",
"@@@@@@@@@@@@@@@@@@@+.+@@@@@@@@@@@@@@@@@@@@+.+@@@@@@@@@@@@@@@@@@@",
"@@@@@@@@@@@@@@@@@@+.+@@@@@@@@@@@@@@@@@@@@@@+.+@@@@@@@@@@@@@@@@@@",
"@@@@@@@@@@@@@@@@@+.+@@@@@@@@@@@@@@@@@@@@@@@@+.+@@@@@@@@@@@@@@@@@",
"@@@@@@@@@@@@@@@@+.+@@@@@@@@@@@@@@@@@@@@@@@@@@+.+@@@@@@@@@@@@@@@@",
"@@@@@@@@@@@@@@@+.+@@@@@@@@@@@@@@@@@@@@@@@@@@@@+.+@@@@@@@@@@@@@@@",
"@@@@@@@@@@@@@@+.+@@@@@@@@@@@@@@@@@@@@@@@@@@@@@@+.+@@@@@@@@@@@@@@",
"@@@@@@@@@@@@@+.+@@@@@@@@@@@@@@@@@@@@@@@@@@@@@@@@+.+@@@@@@@@@@@@@",
"@@@@@@@@@@@@+.+@@@@@@@@@@@@@@@@@@@@@@@@@@@@@@@@@@+.+@@@@@@@@@@@@",
"@@@@@@@@@@@+.+@@@@@@@@@@@@@@@@@@@@@@@@@@@@@@@@@@@@+.+@@@@@@@@@@@",
"@@@@@@@@@@+.+@@@@@@@@@@@@@@@@@@@@@@@@@@@@@@@@@@@@@@+.+@@@@@@@@@@",
"@@@@@@@@@+.+@@@@@@@@@@@@@@@@@@@@@@@@@@@@@@@@@@@@@@@@+.+@@@@@@@@@",
"@@@@@@@@+.+@@@@@@@@@@@@@@@@@@@@@@@@@@@@@@@@@@@@@@@@@@+.+@@@@@@@@",
"@@@@@@@+.+@@@@@@@@@@@@@@@@@@@@@@@@@@@@@@@@@@@@@@@@@@@@+.+@@@@@@@",
"@@@@@@+.+@@@@@@@@@@@@@@@@@@@@@@@@@@@@@@@@@@@@@@@@@@@@@@+.+@@@@@@",
"@@@@@+.+@@@@@@@@@@@@@@@@@@@@@@@@@@@@@@@@@@@@@@@@@@@@@@@@+.+@@@@@",
"@@@@+.+@@@@@@@@@@@@@@@@@@@@@@@@@@@@@@@@@@@@@@@@@@@@@@@@@@+.+@@@@",
"@@@+.+@@@@@@@@@@@@@@@@@@@@@@@@@@@@@@@@@@@@@@@@@@@@@@@@@@@@+.+@@@",
"@@+.+@@@@@@@@@@@@@@@@@@@@@@@@@@@@@@@@@@@@@@@@@@@@@@@@@@@@@@+.+@@",
"@+.+@@@@@@@@@@@@@@@@@@@@@@@@@@@@@@@@@@@@@@@@@@@@@@@@@@@@@@@@+.+@",
"+.+@@@@@@@@@@@@@@@@@@@@@@@@@@@@@@@@@@@@@@@@@@@@@@@@@@@@@@@@@@+.+",
".+@@@@@@@@@@@@@@@@@@@@@@@@@@@@@@@@@@@@@@@@@@@@@@@@@@@@@@@@@@@@+."};
