/* XPM */
static char *S_xpm[] = {
/* columns rows colors chars-per-pixel */
"15 15 55 1",
"  c black",
". c #020202",
"X c #040404",
"o c gray2",
"O c #070707",
"+ c #090909",
"@ c #0B0B0B",
"# c #111111",
"$ c #202020",
"% c #232323",
"& c gray18",
"* c #2F2F2F",
"= c #343434",
"- c #3E3E3E",
"; c #3F3F3F",
": c #434343",
"> c gray28",
", c #5A5A5A",
"< c #6D6D6D",
"1 c gray44",
"2 c #747474",
"3 c #777777",
"4 c #797979",
"5 c #818181",
"6 c #868686",
"7 c gray54",
"8 c #909090",
"9 c #929292",
"0 c gray58",
"q c #AEAEAE",
"w c #B7B7B7",
"e c gray72",
"r c gray76",
"t c #C8C8C8",
"y c gray79",
"u c #CECECE",
"i c #D2D2D2",
"p c #D7D7D7",
"a c gray86",
"s c gainsboro",
"d c #DFDFDF",
"f c #E1E1E1",
"g c #E6E6E6",
"h c #E7E7E7",
"j c #EEEEEE",
"k c gray95",
"l c gray96",
"z c #F6F6F6",
"x c gray97",
"c c #F8F8F8",
"v c #FBFBFB",
"b c gray99",
"n c #FDFDFD",
"m c #FEFEFE",
"M c gray100",
/* pixels */
"MMMMMnMMMMMMMMM",
"MMMMmMq;%&5nMMM",
"MMMbM7 ,0<>xMmM",
"MMmMz@1MbMMMMMM",
"MMnMg 8MlcnMMMM",
"MMMMM=#uMmbmMMM",
"MMMnMi$ :rMmMMM",
"MMMMmMk9$ 3MmMM",
"MMMMMnnmM4 wMbM",
"MMMMMbvcMzO2MvM",
"MMMMMMMmMj.6MvM",
"MMnMs,eay-+fMnM",
"MMnMd*Xo.&tMnMM",
"MMMMMMjphMmmMMM",
"MMMMmnMMMnbMMMM"
};
